<?xml version="1.0" standalone="no"?>
<!DOCTYPE svg PUBLIC "-//W3C//DTD SVG 20010904//EN"
 "http://www.w3.org/TR/2001/REC-SVG-20010904/DTD/svg10.dtd">
<svg version="1.0" xmlns="http://www.w3.org/2000/svg"
 width="512.000000pt" height="512.000000pt" viewBox="0 0 512.000000 512.000000"
 preserveAspectRatio="xMidYMid meet">
<metadata>
Created by potrace 1.16, written by Peter Selinger 2001-2019
</metadata>
<g transform="translate(0.000000,512.000000) scale(0.100000,-0.100000)"
fill="#000000" stroke="none">
<path d="M975 4846 c-112 -28 -198 -99 -249 -206 l-31 -65 0 -1960 0 -1960 27
-57 c60 -128 176 -208 317 -216 98 -6 167 13 250 69 122 81 181 74 304 -41 94
-86 146 -120 231 -150 189 -65 391 -15 551 136 96 91 120 104 183 104 68 0 99
-17 186 -99 130 -123 226 -164 386 -164 160 0 256 41 386 164 39 37 85 74 103
83 44 23 123 23 160 -1 98 -62 129 -78 175 -90 155 -40 324 21 413 151 68 99
63 -51 61 2091 l-3 1940 -31 65 c-53 110 -145 184 -262 209 -80 17 -3088 14
-3157 -3z m3108 -334 c16 -17 17 -160 15 -1903 l-3 -1884 -26 -9 c-22 -7 -33
-4 -60 17 -19 14 -66 41 -104 59 -61 28 -83 33 -169 36 -180 8 -286 -33 -428
-165 -148 -138 -206 -138 -357 0 -135 125 -233 167 -392 167 -153 0 -262 -47
-397 -174 -87 -81 -131 -102 -194 -92 -48 8 -79 28 -176 118 -123 114 -233
154 -407 146 -87 -4 -111 -9 -168 -36 -37 -17 -82 -42 -100 -56 -37 -28 -66
-33 -85 -14 -9 9 -12 443 -12 1892 0 1735 1 1881 17 1898 15 17 76 18 1523 18
1448 0 1508 -1 1523 -18z"/>
<path d="M1638 4046 c-57 -20 -85 -42 -116 -88 -24 -36 -27 -51 -27 -119 0
-70 3 -81 30 -121 96 -135 301 -123 375 23 27 51 27 146 1 197 -51 99 -162
144 -263 108z"/>
<path d="M2152 3980 c-48 -30 -72 -75 -72 -140 0 -65 24 -110 72 -140 32 -19
52 -20 674 -20 l641 0 33 23 c57 38 75 71 75 137 0 66 -18 99 -75 138 l-33 22
-641 0 c-622 0 -642 -1 -674 -20z"/>
<path d="M1615 2971 c-113 -52 -157 -183 -100 -298 38 -75 89 -107 179 -111
91 -4 146 22 194 94 32 47 34 53 30 125 -2 64 -7 82 -32 117 -56 82 -180 115
-271 73z"/>
<path d="M2180 2929 c-63 -25 -100 -85 -100 -160 0 -65 28 -112 81 -140 38
-19 57 -19 678 -17 628 3 640 3 668 24 35 25 73 98 73 140 0 51 -40 115 -90
141 l-43 23 -621 -1 c-388 0 -630 -4 -646 -10z"/>
<path d="M1615 1906 c-135 -60 -167 -256 -59 -358 94 -88 257 -72 330 34 24
34 29 54 32 113 5 101 -29 164 -110 206 -44 23 -147 25 -193 5z"/>
<path d="M2162 1853 c-53 -26 -82 -77 -82 -144 0 -62 22 -105 73 -143 28 -21
37 -21 661 -24 l632 -2 44 23 c50 26 90 90 90 141 0 42 -38 115 -73 140 -28
21 -40 21 -670 23 -579 3 -645 1 -675 -14z"/>
</g>
</svg>
