<?xml version="1.0" standalone="no"?>
<!DOCTYPE svg PUBLIC "-//W3C//DTD SVG 20010904//EN"
 "http://www.w3.org/TR/2001/REC-SVG-20010904/DTD/svg10.dtd">
<svg version="1.0" xmlns="http://www.w3.org/2000/svg"
 width="512.000000pt" height="512.000000pt" viewBox="0 0 512.000000 512.000000"
 preserveAspectRatio="xMidYMid meet">
<metadata>
Created by potrace 1.16, written by Peter Selinger 2001-2019
</metadata>
<g transform="translate(0.000000,512.000000) scale(0.100000,-0.100000)"
fill="#000000" stroke="none">
<path d="M488 4141 c-145 -47 -269 -174 -312 -320 -14 -49 -16 -189 -16 -1262
0 -1157 1 -1210 19 -1268 46 -147 172 -272 320 -315 49 -14 189 -16 1263 -16
1197 0 1209 0 1271 21 138 46 250 153 304 290 14 37 18 92 23 332 l5 288 455
-305 c523 -350 526 -352 686 -344 84 5 103 9 171 43 92 45 185 135 226 216 58
117 57 86 57 1059 0 582 -4 911 -11 940 -32 138 -139 270 -273 336 -78 38 -82
39 -190 39 -85 0 -123 -5 -163 -19 -30 -11 -253 -154 -505 -323 l-453 -304 -5
288 c-5 241 -9 295 -23 333 -55 139 -178 254 -316 294 -49 14 -189 16 -1265
15 -1146 0 -1214 -1 -1268 -18z m2416 -311 c49 -11 85 -37 111 -81 20 -33 20
-52 20 -1189 0 -1137 0 -1156 -20 -1189 -26 -44 -62 -70 -111 -81 -52 -12
-2236 -12 -2288 0 -49 11 -85 37 -111 81 -20 33 -20 52 -20 1189 0 1137 0
1156 20 1189 25 42 62 71 106 81 48 11 2245 12 2293 0z m1642 -301 c19 -11 47
-42 62 -67 l27 -47 0 -855 0 -855 -27 -47 c-15 -25 -43 -56 -62 -67 -71 -44
-61 -50 -597 310 -272 182 -515 345 -541 362 l-48 32 0 265 0 265 48 31 c26
18 269 181 540 363 537 360 526 355 598 310z"/>
</g>
</svg>
