<?xml version="1.0" standalone="no"?>
<!DOCTYPE svg PUBLIC "-//W3C//DTD SVG 20010904//EN"
 "http://www.w3.org/TR/2001/REC-SVG-20010904/DTD/svg10.dtd">
<svg version="1.0" xmlns="http://www.w3.org/2000/svg"
 width="512.000000pt" height="512.000000pt" viewBox="0 0 512.000000 512.000000"
 preserveAspectRatio="xMidYMid meet">
<metadata>
Created by potrace 1.16, written by Peter Selinger 2001-2019
</metadata>
<g transform="translate(0.000000,512.000000) scale(0.100000,-0.100000)"
fill="#000000" stroke="none">
<path d="M1415 4685 c-48 -19 -91 -58 -116 -107 -16 -31 -19 -59 -19 -173 l0
-135 -148 0 c-173 0 -262 -18 -371 -75 -140 -74 -255 -211 -308 -368 l-28 -82
0 -1400 0 -1400 27 -76 c61 -172 167 -297 319 -374 142 -72 114 -70 804 -70
l620 0 45 25 c24 14 58 45 75 68 27 40 30 51 30 122 0 71 -3 82 -30 122 -17
23 -51 54 -75 68 l-45 25 -595 5 c-653 5 -621 2 -682 67 -61 64 -58 11 -58
1078 l0 975 1700 0 1700 0 0 -439 c0 -479 2 -495 58 -554 44 -46 94 -67 162
-67 102 0 184 60 209 154 9 30 11 264 9 856 l-3 815 -28 82 c-53 157 -168 294
-308 368 -109 57 -198 75 -371 75 l-148 0 0 135 c0 115 -3 142 -19 174 -75
147 -279 159 -376 23 -30 -43 -30 -46 -33 -188 l-3 -144 -849 0 -849 0 -3 144
c-3 142 -3 145 -33 188 -57 80 -171 116 -260 83z m2730 -876 c30 -15 62 -42
80 -68 29 -42 30 -46 33 -182 l4 -139 -1701 0 -1701 0 0 127 c0 145 15 193 77
240 70 54 12 52 1643 50 l1516 -2 49 -26z"/>
<path d="M2895 1691 c-112 -52 -157 -183 -100 -297 16 -32 73 -97 164 -189
l140 -139 -153 -156 c-169 -171 -181 -192 -174 -291 10 -135 142 -225 276
-189 42 12 73 39 296 259 161 159 255 260 267 286 24 53 24 128 -2 185 -29 64
-454 491 -523 525 -61 30 -134 33 -191 6z"/>
<path d="M3953 1685 c-72 -36 -106 -89 -111 -170 -7 -104 4 -123 174 -295
l153 -156 -145 -144 c-80 -80 -154 -162 -165 -182 -24 -47 -26 -146 -3 -191
56 -111 187 -156 297 -101 44 22 494 470 518 516 29 56 34 117 15 174 -14 43
-48 81 -263 296 -163 162 -261 253 -285 263 -56 23 -126 19 -185 -10z"/>
</g>
</svg>
